<svg width="58" height="58" viewBox="0 0 58 58" fill="none" xmlns="http://www.w3.org/2000/svg">
<g filter="url(#filter0_d_1_397)">
<path d="M54 27.8482V22.1518C54 21.0351 53.0947 20.1299 51.9781 20.1299H49.7994C48.9282 20.1299 48.1553 19.5717 47.8815 18.7448C47.5764 17.8235 47.2058 16.9322 46.7752 16.0763C46.3831 15.2967 46.5332 14.3542 47.1502 13.7371L48.6916 12.1957C49.4813 11.406 49.4813 10.1259 48.6916 9.33622L44.6637 5.30825C43.874 4.51861 42.5938 4.51861 41.8042 5.30825L40.2628 6.8497C39.6457 7.4668 38.7032 7.6168 37.9236 7.22465C37.0677 6.79406 36.1763 6.42344 35.2551 6.11841C34.4282 5.84457 33.87 5.07163 33.87 4.2005V2.02193C33.87 0.905231 32.9648 0 31.8481 0H26.1517C25.035 0 24.1298 0.905231 24.1298 2.02193V4.2006C24.1298 5.07173 23.5716 5.84467 22.7446 6.11851C21.8234 6.42354 20.9321 6.79417 20.0761 7.22475C19.2966 7.6169 18.3541 7.4668 17.737 6.8498L16.1956 5.30835C15.4059 4.51871 14.1257 4.51871 13.3361 5.30835L9.30833 9.33632C8.51869 10.126 8.51869 11.4061 9.30833 12.1958L10.8498 13.7372C11.4668 14.3543 11.6169 15.2968 11.2247 16.0764C10.7941 16.9323 10.4235 17.8236 10.1185 18.7449C9.92493 19.3293 9.48218 19.7794 8.93167 19.9932C8.7032 20.0819 8.55672 20.2305 8.30119 20.2305H6.12252C5.00582 20.2305 4.10059 21.1357 4.10059 22.2524V27.7476C4.10059 28.8643 5.00582 29.7695 6.12252 29.7695H8.30119C9.17232 29.7695 9.94525 30.4283 10.2191 31.2552C10.5241 32.1765 10.8948 33.0677 11.3253 33.9237C11.7175 34.7033 11.5674 35.6458 10.9504 36.2629L9.50954 37.8043C8.7199 38.594 8.7199 39.8741 9.50954 40.6638L13.3363 44.4905C14.1259 45.2802 15.4061 45.2802 16.1958 44.4905L17.7372 42.9491C18.3542 42.332 19.2968 42.182 20.0763 42.5741C20.9323 43.0047 22.0248 43.476 22.9461 43.781C23.773 44.0548 24.3312 44.8278 24.3312 45.6989V47.8776C24.3312 48.9943 25.2364 49.8995 26.3531 49.8995H31.7477C32.8644 49.8995 33.7696 48.9943 33.7696 47.8776V45.6989C33.7696 45.4434 33.9182 45.2969 34.0069 45.0684C34.2207 44.5179 34.6709 44.0751 35.2552 43.8816C36.1764 43.5766 37.0678 43.2059 37.9237 42.7754C38.7033 42.3832 39.6458 42.5333 40.2629 43.1503L41.8043 44.6917C42.5939 45.4814 43.8741 45.4814 44.6638 44.6917L48.6917 40.6638C49.4814 39.8741 49.4814 38.594 48.6917 37.8043L47.1503 36.2629C46.5333 35.6458 46.3832 34.7033 46.7753 33.9237C47.2059 33.0678 47.5765 32.1765 47.8816 31.2552C48.1554 30.4283 48.9284 29.8701 49.7995 29.8701H51.9781C53.0947 29.8701 54 28.9649 54 27.8482Z" fill="#B6C4CF"/>
<path d="M34.007 45.0684C33.9185 45.2967 33.8702 45.5442 33.8702 45.7998V47.9778C33.8702 49.0945 32.9648 50 31.8481 50H26.1519C25.0352 50 24.1298 49.0945 24.1298 47.9778V45.7998C24.1298 44.9285 23.5714 44.1549 22.7445 43.8812C21.8239 43.5764 20.9326 43.2062 20.0765 42.7756C19.2968 42.3833 18.3541 42.5332 17.7374 43.1499L16.1962 44.6911C15.4064 45.4808 14.1258 45.4808 13.336 44.6911L9.30785 40.6639C8.51911 39.8742 8.51911 38.5935 9.30785 37.8038L10.8501 36.2625C11.4668 35.6458 11.6167 34.7032 11.2243 33.9235C10.7938 33.0674 10.4235 32.176 10.1187 31.2555C9.84507 30.4285 9.07143 29.8702 8.2002 29.8702H6.02213C4.90543 29.8702 4 28.9648 4 27.8481V22.1519C4 21.0352 4.90543 20.1297 6.02213 20.1297H8.2002C8.45573 20.1297 8.70322 20.0815 8.93159 19.9929C8.92958 20.1187 8.92857 20.2454 8.92857 20.3722C8.92857 34.013 19.9869 45.0714 33.6278 45.0714C33.7545 45.0714 33.8813 45.0704 34.007 45.0684Z" fill="#9FACBA"/>
<path d="M29 41.5996C38.1677 41.5996 45.5996 34.1677 45.5996 25C45.5996 15.8323 38.1677 8.40039 29 8.40039C19.8323 8.40039 12.4004 15.8323 12.4004 25C12.4004 34.1677 19.8323 41.5996 29 41.5996Z" fill="#9FACBA"/>
<path d="M28.9999 38.0784C36.2229 38.0784 42.0783 32.223 42.0783 25C42.0783 17.7769 36.2229 11.9215 28.9999 11.9215C21.7768 11.9215 15.9214 17.7769 15.9214 25C15.9214 32.223 21.7768 38.0784 28.9999 38.0784Z" fill="#F8F7F7"/>
</g>
<defs>
<filter id="filter0_d_1_397" x="0" y="0" width="58" height="57.9999" filterUnits="userSpaceOnUse" color-interpolation-filters="sRGB">
<feFlood flood-opacity="0" result="BackgroundImageFix"/>
<feColorMatrix in="SourceAlpha" type="matrix" values="0 0 0 0 0 0 0 0 0 0 0 0 0 0 0 0 0 0 127 0" result="hardAlpha"/>
<feOffset dy="4"/>
<feGaussianBlur stdDeviation="2"/>
<feComposite in2="hardAlpha" operator="out"/>
<feColorMatrix type="matrix" values="0 0 0 0 0 0 0 0 0 0 0 0 0 0 0 0 0 0 0.25 0"/>
<feBlend mode="normal" in2="BackgroundImageFix" result="effect1_dropShadow_1_397"/>
<feBlend mode="normal" in="SourceGraphic" in2="effect1_dropShadow_1_397" result="shape"/>
</filter>
</defs>
</svg>
